<?xml version="1.0" standalone="no"?>
<!DOCTYPE svg PUBLIC "-//W3C//DTD SVG 20010904//EN"
 "http://www.w3.org/TR/2001/REC-SVG-20010904/DTD/svg10.dtd">
<svg version="1.0" xmlns="http://www.w3.org/2000/svg"
 width="460.000000pt" height="460.000000pt" viewBox="0 0 460.000000 460.000000"
 preserveAspectRatio="xMidYMid meet">
<metadata>
Created by potrace 1.14, written by Peter Selinger 2001-2017
</metadata>
<g transform="translate(0.000000,460.000000) scale(0.100000,-0.100000)"
fill="#000000" stroke="none">
<path d="M2225 2934 c-33 -47 -81 -111 -107 -141 -26 -31 -54 -70 -62 -87 -9
-17 -37 -59 -63 -93 -116 -150 -160 -211 -185 -253 -14 -25 -38 -56 -52 -70
-26 -24 -27 -26 -20 -110 4 -47 11 -95 15 -107 l9 -23 265 0 265 0 0 -135 0
-135 125 0 125 0 0 135 0 135 55 0 c68 0 70 5 80 133 l7 97 -71 0 -71 0 0 370
0 370 -127 0 -128 -1 -60 -85z m65 -459 l0 -195 -135 0 c-83 0 -135 4 -135 10
0 6 4 10 9 10 5 0 16 15 24 33 9 17 42 69 74 113 32 45 81 114 108 153 28 39
51 71 53 71 1 0 2 -88 2 -195z"/>
</g>
</svg>
